<?xml version="1.0" standalone="no"?>
<!DOCTYPE svg PUBLIC "-//W3C//DTD SVG 20010904//EN"
 "http://www.w3.org/TR/2001/REC-SVG-20010904/DTD/svg10.dtd">
<svg version="1.0" xmlns="http://www.w3.org/2000/svg"
 width="272.000000pt" height="272.000000pt" viewBox="0 0 272.000000 272.000000"
 preserveAspectRatio="xMidYMid meet">
<metadata>
Created by potrace 1.16, written by Peter Selinger 2001-2019
</metadata>
<g transform="translate(0.000000,272.000000) scale(0.100000,-0.100000)"
fill="#000000" stroke="none">
<path d="M1129 1926 c-107 -31 -202 -91 -285 -178 -124 -131 -174 -262 -174
-455 0 -134 20 -199 77 -255 51 -50 99 -68 178 -68 73 0 114 14 163 55 l33 28
57 -29 c48 -24 69 -29 137 -29 67 0 89 4 137 28 65 32 121 90 151 156 30 65
30 187 0 252 -30 66 -86 124 -151 156 -48 24 -70 28 -137 28 -93 0 -148 -21
-213 -80 -66 -59 -95 -131 -100 -244 -5 -114 -21 -141 -83 -141 -64 0 -86 67
-69 206 40 322 382 510 668 368 234 -115 330 -392 216 -622 -59 -121 -176
-218 -302 -252 -71 -18 -191 -14 -263 10 -35 12 -65 18 -66 13 -2 -4 -23 -38
-47 -76 l-45 -67 28 -15 c65 -33 175 -55 276 -55 189 0 339 64 468 200 124
129 177 264 177 445 0 181 -53 316 -177 445 -84 89 -183 149 -293 179 -105 29
-257 28 -361 -3z m249 -506 c40 -25 72 -75 72 -115 0 -63 -72 -135 -135 -135
-40 0 -90 32 -115 72 -37 62 -15 137 52 178 18 11 47 20 63 20 17 0 45 -9 63
-20z"/>
</g>
</svg>
